<?xml version="1.0" encoding="utf-8"?>
<!-- Generator: Adobe Illustrator 19.0.0, SVG Export Plug-In . SVG Version: 6.00 Build 0)  -->
<svg version="1.1" id="Layer_1" xmlns="http://www.w3.org/2000/svg" xmlns:xlink="http://www.w3.org/1999/xlink" x="0px" y="0px"
	 viewBox="0 0 6000 500" style="enable-background:new 0 0 6000 500;" xml:space="preserve">
<style type="text/css">
	.st0{fill:#E6E6E6;stroke:#E6E6E6;stroke-miterlimit:10;}
	.st1{fill:#F2F2F2;stroke:#F2F2F2;stroke-miterlimit:10;}
</style>
<g id="XMLID_1_">
	<path id="XMLID_7_" class="st0" d="M740.8,74.8c0-6.5-5.3-11.9-11.9-11.9c-4.6,0-8.6,2.6-10.5,6.4c-0.2,0-0.4,0.1-0.6,0.1
		c-1.6-2.5-4.2-4.3-7.2-5c-2.1-3.3-5.8-5.5-10-5.5c-5.1,0-9.4,3.2-11.1,7.7c-2-1.6-4.6-2.6-7.4-2.6c-6.5,0-11.9,5.3-11.9,11.9
		s5.3,11.9,11.9,11.9c0,0,0.1,0,0.1,0c0,0.3,0,0.5,0,0.8c0,6.5,5.3,11.9,11.9,11.9c3.1,0,5.9-1.2,8-3.1c2.2,2.6,5.4,4.3,9.1,4.3
		c5.6,0,10.2-3.8,11.5-9c3.3-0.8,6.1-3.1,7.7-6.1C736.3,85.9,740.8,80.9,740.8,74.8z"/>
	<g id="XMLID_14_">
		<path id="XMLID_2_" class="st0" d="M445.9,17c0-20.7-16.8-37.4-37.4-37.4c-14.5,0-27,8.2-33.2,20.2c-0.7,0.1-1.3,0.2-2,0.3
			c-5.2-7.8-13.2-13.6-22.6-15.8C344-26.1,332.3-33,319.1-33C303-33,289.3-22.9,284-8.6c-6.4-5.1-14.5-8.1-23.3-8.1
			c-20.7,0-37.4,16.8-37.4,37.4s16.8,37.4,37.4,37.4c0.1,0,0.2,0,0.3,0c-0.1,0.8-0.1,1.6-0.1,2.5c0,20.7,16.8,37.4,37.4,37.4
			c9.7,0,18.5-3.7,25.2-9.8c6.9,8.2,17.2,13.4,28.7,13.4c17.6,0,32.3-12.1,36.3-28.4c10.6-2.6,19.3-9.7,24.2-19.1
			C431.5,51.9,445.9,36.1,445.9,17z"/>
		<path id="XMLID_9_" class="st1" d="M309.7,24c0-28-22.7-50.7-50.7-50.7c-19.6,0-36.5,11.1-45,27.4c-0.9,0.1-1.8,0.2-2.7,0.4
			c-7-10.6-17.9-18.4-30.6-21.4c-9-14-24.7-23.4-42.7-23.4c-21.8,0-40.3,13.7-47.5,33c-8.7-6.9-19.6-11-31.5-11
			C31-21.7,8.3,1,8.3,29S31,79.7,59,79.7c0.2,0,0.3,0,0.5,0c-0.1,1.1-0.1,2.2-0.1,3.3c0,28,22.7,50.7,50.7,50.7
			c13.1,0,25.1-5,34.1-13.2c9.3,11.1,23.3,18.2,38.9,18.2c23.8,0,43.7-16.4,49.2-38.5c14.3-3.5,26.2-13.1,32.8-25.9
			C290.1,71.3,309.7,50,309.7,24z"/>
	</g>
	<g id="XMLID_16_">
		<path id="XMLID_20_" class="st0" d="M1891.9,0c0-20.7-16.8-37.4-37.4-37.4c-14.5,0-27,8.2-33.2,20.2c-0.7,0.1-1.3,0.2-2,0.3
			c-5.2-7.8-13.2-13.6-22.6-15.8c-6.7-10.4-18.3-17.3-31.5-17.3c-16.1,0-29.8,10.1-35.1,24.4c-6.4-5.1-14.5-8.1-23.3-8.1
			c-20.7,0-37.4,16.8-37.4,37.4s16.8,37.4,37.4,37.4c0.1,0,0.2,0,0.3,0c-0.1,0.8-0.1,1.6-0.1,2.5c0,20.7,16.8,37.4,37.4,37.4
			c9.7,0,18.5-3.7,25.2-9.8c6.9,8.2,17.2,13.4,28.7,13.4c17.6,0,32.3-12.1,36.3-28.4c10.6-2.6,19.3-9.7,24.2-19.1
			C1877.5,34.9,1891.9,19.1,1891.9,0z"/>
		<path id="XMLID_19_" class="st1" d="M1755.7,7c0-28-22.7-50.7-50.7-50.7c-19.6,0-36.5,11.1-45,27.4c-0.9,0.1-1.8,0.2-2.7,0.4
			c-7-10.6-17.9-18.4-30.6-21.4c-9-14-24.7-23.4-42.7-23.4c-21.8,0-40.3,13.7-47.5,33c-8.7-6.9-19.6-11-31.5-11
			c-28,0-50.7,22.7-50.7,50.7s22.7,50.7,50.7,50.7c0.2,0,0.3,0,0.5,0c-0.1,1.1-0.1,2.2-0.1,3.3c0,28,22.7,50.7,50.7,50.7
			c13.1,0,25.1-5,34.1-13.2c9.3,11.1,23.3,18.2,38.9,18.2c23.8,0,43.7-16.4,49.2-38.5c14.3-3.5,26.2-13.1,32.8-25.9
			C1736.1,54.3,1755.7,33,1755.7,7z"/>
	</g>
	<g id="XMLID_38_">
		<path id="XMLID_40_" class="st0" d="M3511.9-13c0-20.7-16.8-37.4-37.4-37.4c-14.5,0-27,8.2-33.2,20.2c-0.7,0.1-1.3,0.2-2,0.3
			c-5.2-7.8-13.2-13.6-22.6-15.8c-6.7-10.4-18.3-17.3-31.5-17.3c-16.1,0-29.8,10.1-35.1,24.4c-6.4-5.1-14.5-8.1-23.3-8.1
			c-20.7,0-37.4,16.8-37.4,37.4s16.8,37.4,37.4,37.4c0.1,0,0.2,0,0.3,0c-0.1,0.8-0.1,1.6-0.1,2.5c0,20.7,16.8,37.4,37.4,37.4
			c9.7,0,18.5-3.7,25.2-9.8c6.9,8.2,17.2,13.4,28.7,13.4c17.6,0,32.3-12.1,36.3-28.4c10.6-2.6,19.3-9.7,24.2-19.1
			C3497.5,21.9,3511.9,6.1,3511.9-13z"/>
		<path id="XMLID_39_" class="st1" d="M3375.7-6c0-28-22.7-50.7-50.7-50.7c-19.6,0-36.5,11.1-45,27.4c-0.9,0.1-1.8,0.2-2.7,0.4
			c-7-10.6-17.9-18.4-30.6-21.4c-9-14-24.7-23.4-42.7-23.4c-21.8,0-40.3,13.7-47.5,33c-8.7-6.9-19.6-11-31.5-11
			c-28,0-50.7,22.7-50.7,50.7s22.7,50.7,50.7,50.7c0.2,0,0.3,0,0.5,0c-0.1,1.1-0.1,2.2-0.1,3.3c0,28,22.7,50.7,50.7,50.7
			c13.1,0,25.1-5,34.1-13.2c9.3,11.1,23.3,18.2,38.9,18.2c23.8,0,43.7-16.4,49.2-38.5c14.3-3.5,26.2-13.1,32.8-25.9
			C3356.1,41.3,3375.7,20,3375.7-6z"/>
	</g>
	<path id="XMLID_11_" class="st1" d="M1138.7,7c0-28-22.7-50.7-50.7-50.7c-19.6,0-36.5,11.1-45,27.4c-0.9,0.1-1.8,0.2-2.7,0.4
		c-7-10.6-17.9-18.4-30.6-21.4c-9-14-24.7-23.4-42.7-23.4c-21.8,0-40.3,13.7-47.5,33c-8.7-6.9-19.6-11-31.5-11
		c-28,0-50.7,22.7-50.7,50.7S860,62.7,888,62.7c0.2,0,0.3,0,0.5,0c-0.1,1.1-0.1,2.2-0.1,3.3c0,28,22.7,50.7,50.7,50.7
		c13.1,0,25.1-5,34.1-13.2c9.3,11.1,23.3,18.2,38.9,18.2c23.8,0,43.7-16.4,49.2-38.5c14.3-3.5,26.2-13.1,32.8-25.9
		C1119.1,54.3,1138.7,33,1138.7,7z"/>
	<path id="XMLID_22_" class="st0" d="M2271.8,78.8c0-6.5-5.3-11.9-11.9-11.9c-4.6,0-8.6,2.6-10.5,6.4c-0.2,0-0.4,0.1-0.6,0.1
		c-1.6-2.5-4.2-4.3-7.2-5c-2.1-3.3-5.8-5.5-10-5.5c-5.1,0-9.4,3.2-11.1,7.7c-2-1.6-4.6-2.6-7.4-2.6c-6.5,0-11.9,5.3-11.9,11.9
		s5.3,11.9,11.9,11.9c0,0,0.1,0,0.1,0c0,0.3,0,0.5,0,0.8c0,6.5,5.3,11.9,11.9,11.9c3.1,0,5.9-1.2,8-3.1c2.2,2.6,5.4,4.3,9.1,4.3
		c5.6,0,10.2-3.8,11.5-9c3.3-0.8,6.1-3.1,7.7-6.1C2267.3,89.9,2271.8,84.9,2271.8,78.8z"/>
	<path id="XMLID_27_" class="st0" d="M2920.8,28.8c0-6.5-5.3-11.9-11.9-11.9c-4.6,0-8.6,2.6-10.5,6.4c-0.2,0-0.4,0.1-0.6,0.1
		c-1.6-2.5-4.2-4.3-7.2-5c-2.1-3.3-5.8-5.5-10-5.5c-5.1,0-9.4,3.2-11.1,7.7c-2-1.6-4.6-2.6-7.4-2.6c-6.5,0-11.9,5.3-11.9,11.9
		s5.3,11.9,11.9,11.9c0,0,0.1,0,0.1,0c0,0.3,0,0.5,0,0.8c0,6.5,5.3,11.9,11.9,11.9c3.1,0,5.9-1.2,8-3.1c2.2,2.6,5.4,4.3,9.1,4.3
		c5.6,0,10.2-3.8,11.5-9c3.3-0.8,6.1-3.1,7.7-6.1C2916.3,39.9,2920.8,34.9,2920.8,28.8z"/>
	<path id="XMLID_33_" class="st0" d="M3036.8,3.8c0-6.5-5.3-11.9-11.9-11.9c-4.6,0-8.6,2.6-10.5,6.4c-0.2,0-0.4,0.1-0.6,0.1
		c-1.6-2.5-4.2-4.3-7.2-5c-2.1-3.3-5.8-5.5-10-5.5c-5.1,0-9.4,3.2-11.1,7.7c-2-1.6-4.6-2.6-7.4-2.6c-6.5,0-11.9,5.3-11.9,11.9
		s5.3,11.9,11.9,11.9c0,0,0.1,0,0.1,0c0,0.3,0,0.5,0,0.8c0,6.5,5.3,11.9,11.9,11.9c3.1,0,5.9-1.2,8-3.1c2.2,2.6,5.4,4.3,9.1,4.3
		c5.6,0,10.2-3.8,11.5-9c3.3-0.8,6.1-3.1,7.7-6.1C3032.3,14.9,3036.8,9.9,3036.8,3.8z"/>
	<path id="XMLID_32_" class="st0" d="M2991.8,61.8c0-6.5-5.3-11.9-11.9-11.9c-4.6,0-8.6,2.6-10.5,6.4c-0.2,0-0.4,0.1-0.6,0.1
		c-1.6-2.5-4.2-4.3-7.2-5c-2.1-3.3-5.8-5.5-10-5.5c-5.1,0-9.4,3.2-11.1,7.7c-2-1.6-4.6-2.6-7.4-2.6c-6.5,0-11.9,5.3-11.9,11.9
		s5.3,11.9,11.9,11.9c0,0,0.1,0,0.1,0c0,0.3,0,0.5,0,0.8c0,6.5,5.3,11.9,11.9,11.9c3.1,0,5.9-1.2,8-3.1c2.2,2.6,5.4,4.3,9.1,4.3
		c5.6,0,10.2-3.8,11.5-9c3.3-0.8,6.1-3.1,7.7-6.1C2987.3,72.9,2991.8,67.9,2991.8,61.8z"/>
	<path id="XMLID_21_" class="st1" d="M2669.7,11c0-28-22.7-50.7-50.7-50.7c-19.6,0-36.5,11.1-45,27.4c-0.9,0.1-1.8,0.2-2.7,0.4
		c-7-10.6-17.9-18.4-30.6-21.4c-9-14-24.7-23.4-42.7-23.4c-21.8,0-40.3,13.7-47.5,33c-8.7-6.9-19.6-11-31.5-11
		c-28,0-50.7,22.7-50.7,50.7s22.7,50.7,50.7,50.7c0.2,0,0.3,0,0.5,0c-0.1,1.1-0.1,2.2-0.1,3.3c0,28,22.7,50.7,50.7,50.7
		c13.1,0,25.1-5,34.1-13.2c9.3,11.1,23.3,18.2,38.9,18.2c23.8,0,43.7-16.4,49.2-38.5c14.3-3.5,26.2-13.1,32.8-25.9
		C2650.1,58.3,2669.7,37,2669.7,11z"/>
	<g id="XMLID_87_">
		<path id="XMLID_89_" class="st0" d="M5008.9-22c0-20.7-16.8-37.4-37.4-37.4c-14.5,0-27,8.2-33.2,20.2c-0.7,0.1-1.3,0.2-2,0.3
			c-5.2-7.8-13.2-13.6-22.6-15.8c-6.7-10.4-18.3-17.3-31.5-17.3c-16.1,0-29.8,10.1-35.1,24.4c-6.4-5.1-14.5-8.1-23.3-8.1
			c-20.7,0-37.4,16.8-37.4,37.4s16.8,37.4,37.4,37.4c0.1,0,0.2,0,0.3,0c-0.1,0.8-0.1,1.6-0.1,2.5c0,20.7,16.8,37.4,37.4,37.4
			c9.7,0,18.5-3.7,25.2-9.8c6.9,8.2,17.2,13.4,28.7,13.4c17.6,0,32.3-12.1,36.3-28.4c10.6-2.6,19.3-9.7,24.2-19.1
			C4994.5,12.9,5008.9-2.9,5008.9-22z"/>
		<path id="XMLID_88_" class="st1" d="M4872.7-15c0-28-22.7-50.7-50.7-50.7c-19.6,0-36.5,11.1-45,27.4c-0.9,0.1-1.8,0.2-2.7,0.4
			c-7-10.6-17.9-18.4-30.6-21.4c-9-14-24.7-23.4-42.7-23.4c-21.8,0-40.3,13.7-47.5,33c-8.7-6.9-19.6-11-31.5-11
			c-28,0-50.7,22.7-50.7,50.7s22.7,50.7,50.7,50.7c0.2,0,0.3,0,0.5,0c-0.1,1.1-0.1,2.2-0.1,3.3c0,28,22.7,50.7,50.7,50.7
			c13.1,0,25.1-5,34.1-13.2c9.3,11.1,23.3,18.2,38.9,18.2c23.8,0,43.7-16.4,49.2-38.5c14.3-3.5,26.2-13.1,32.8-25.9
			C4853.1,32.3,4872.7,11,4872.7-15z"/>
	</g>
	<path id="XMLID_86_" class="st0" d="M3768.8,69.8c0-6.5-5.3-11.9-11.9-11.9c-4.6,0-8.6,2.6-10.5,6.4c-0.2,0-0.4,0.1-0.6,0.1
		c-1.6-2.5-4.2-4.3-7.2-5c-2.1-3.3-5.8-5.5-10-5.5c-5.1,0-9.4,3.2-11.1,7.7c-2-1.6-4.6-2.6-7.4-2.6c-6.5,0-11.9,5.3-11.9,11.9
		s5.3,11.9,11.9,11.9c0,0,0.1,0,0.1,0c0,0.3,0,0.5,0,0.8c0,6.5,5.3,11.9,11.9,11.9c3.1,0,5.9-1.2,8-3.1c2.2,2.6,5.4,4.3,9.1,4.3
		c5.6,0,10.2-3.8,11.5-9c3.3-0.8,6.1-3.1,7.7-6.1C3764.3,80.9,3768.8,75.9,3768.8,69.8z"/>
	<path id="XMLID_85_" class="st0" d="M4417.8,19.8c0-6.5-5.3-11.9-11.9-11.9c-4.6,0-8.6,2.6-10.5,6.4c-0.2,0-0.4,0.1-0.6,0.1
		c-1.6-2.5-4.2-4.3-7.2-5c-2.1-3.3-5.8-5.5-10-5.5c-5.1,0-9.4,3.2-11.1,7.7c-2-1.6-4.6-2.6-7.4-2.6c-6.5,0-11.9,5.3-11.9,11.9
		s5.3,11.9,11.9,11.9c0,0,0.1,0,0.1,0c0,0.3,0,0.5,0,0.8c0,6.5,5.3,11.9,11.9,11.9c3.1,0,5.9-1.2,8-3.1c2.2,2.6,5.4,4.3,9.1,4.3
		c5.6,0,10.2-3.8,11.5-9c3.3-0.8,6.1-3.1,7.7-6.1C4413.3,30.9,4417.8,25.9,4417.8,19.8z"/>
	<path id="XMLID_80_" class="st0" d="M4533.8-5.2c0-6.5-5.3-11.9-11.9-11.9c-4.6,0-8.6,2.6-10.5,6.4c-0.2,0-0.4,0.1-0.6,0.1
		c-1.6-2.5-4.2-4.3-7.2-5c-2.1-3.3-5.8-5.5-10-5.5c-5.1,0-9.4,3.2-11.1,7.7c-2-1.6-4.6-2.6-7.4-2.6c-6.5,0-11.9,5.3-11.9,11.9
		s5.3,11.9,11.9,11.9c0,0,0.1,0,0.1,0c0,0.3,0,0.5,0,0.8c0,6.5,5.3,11.9,11.9,11.9c3.1,0,5.9-1.2,8-3.1c2.2,2.6,5.4,4.3,9.1,4.3
		c5.6,0,10.2-3.8,11.5-9c3.3-0.8,6.1-3.1,7.7-6.1C4529.3,5.9,4533.8,0.9,4533.8-5.2z"/>
	<path id="XMLID_79_" class="st0" d="M4488.8,52.8c0-6.5-5.3-11.9-11.9-11.9c-4.6,0-8.6,2.6-10.5,6.4c-0.2,0-0.4,0.1-0.6,0.1
		c-1.6-2.5-4.2-4.3-7.2-5c-2.1-3.3-5.8-5.5-10-5.5c-5.1,0-9.4,3.2-11.1,7.7c-2-1.6-4.6-2.6-7.4-2.6c-6.5,0-11.9,5.3-11.9,11.9
		s5.3,11.9,11.9,11.9c0,0,0.1,0,0.1,0c0,0.3,0,0.5,0,0.8c0,6.5,5.3,11.9,11.9,11.9c3.1,0,5.9-1.2,8-3.1c2.2,2.6,5.4,4.3,9.1,4.3
		c5.6,0,10.2-3.8,11.5-9c3.3-0.8,6.1-3.1,7.7-6.1C4484.3,63.9,4488.8,58.9,4488.8,52.8z"/>
	<path id="XMLID_74_" class="st1" d="M4166.7,2c0-28-22.7-50.7-50.7-50.7c-19.6,0-36.5,11.1-45,27.4c-0.9,0.1-1.8,0.2-2.7,0.4
		c-7-10.6-17.9-18.4-30.6-21.4c-9-14-24.7-23.4-42.7-23.4c-21.8,0-40.3,13.7-47.5,33c-8.7-6.9-19.6-11-31.5-11
		c-28,0-50.7,22.7-50.7,50.7s22.7,50.7,50.7,50.7c0.2,0,0.3,0,0.5,0c-0.1,1.1-0.1,2.2-0.1,3.3c0,28,22.7,50.7,50.7,50.7
		c13.1,0,25.1-5,34.1-13.2c9.3,11.1,23.3,18.2,38.9,18.2c23.8,0,43.7-16.4,49.2-38.5c14.3-3.5,26.2-13.1,32.8-25.9
		C4147.1,49.3,4166.7,28,4166.7,2z"/>
	<path id="XMLID_99_" class="st0" d="M5318.8,15.8c0-6.5-5.3-11.9-11.9-11.9c-4.6,0-8.6,2.6-10.5,6.4c-0.2,0-0.4,0.1-0.6,0.1
		c-1.6-2.5-4.2-4.3-7.2-5c-2.1-3.3-5.8-5.5-10-5.5c-5.1,0-9.4,3.2-11.1,7.7c-2-1.6-4.6-2.6-7.4-2.6c-6.5,0-11.9,5.3-11.9,11.9
		s5.3,11.9,11.9,11.9c0,0,0.1,0,0.1,0c0,0.3,0,0.5,0,0.8c0,6.5,5.3,11.9,11.9,11.9c3.1,0,5.9-1.2,8-3.1c2.2,2.6,5.4,4.3,9.1,4.3
		c5.6,0,10.2-3.8,11.5-9c3.3-0.8,6.1-3.1,7.7-6.1C5314.3,26.9,5318.8,21.9,5318.8,15.8z"/>
	<path id="XMLID_97_" class="st0" d="M5434.8-9.2c0-6.5-5.3-11.9-11.9-11.9c-4.6,0-8.6,2.6-10.5,6.4c-0.2,0-0.4,0.1-0.6,0.1
		c-1.6-2.5-4.2-4.3-7.2-5c-2.1-3.3-5.8-5.5-10-5.5c-5.1,0-9.4,3.2-11.1,7.7c-2-1.6-4.6-2.6-7.4-2.6c-6.5,0-11.9,5.3-11.9,11.9
		s5.3,11.9,11.9,11.9c0,0,0.1,0,0.1,0c0,0.3,0,0.5,0,0.8c0,6.5,5.3,11.9,11.9,11.9c3.1,0,5.9-1.2,8-3.1c2.2,2.6,5.4,4.3,9.1,4.3
		c5.6,0,10.2-3.8,11.5-9c3.3-0.8,6.1-3.1,7.7-6.1C5430.3,1.9,5434.8-3.1,5434.8-9.2z"/>
	<path id="XMLID_95_" class="st0" d="M5389.8,48.8c0-6.5-5.3-11.9-11.9-11.9c-4.6,0-8.6,2.6-10.5,6.4c-0.2,0-0.4,0.1-0.6,0.1
		c-1.6-2.5-4.2-4.3-7.2-5c-2.1-3.3-5.8-5.5-10-5.5c-5.1,0-9.4,3.2-11.1,7.7c-2-1.6-4.6-2.6-7.4-2.6c-6.5,0-11.9,5.3-11.9,11.9
		s5.3,11.9,11.9,11.9c0,0,0.1,0,0.1,0c0,0.3,0,0.5,0,0.8c0,6.5,5.3,11.9,11.9,11.9c3.1,0,5.9-1.2,8-3.1c2.2,2.6,5.4,4.3,9.1,4.3
		c5.6,0,10.2-3.8,11.5-9c3.3-0.8,6.1-3.1,7.7-6.1C5385.3,59.9,5389.8,54.9,5389.8,48.8z"/>
</g>
<g id="XMLID_4_">
	<path id="XMLID_6_" class="st0" d="M5983.9,24c0-20.7-16.8-37.4-37.4-37.4c-14.5,0-27,8.2-33.2,20.2c-0.7,0.1-1.3,0.2-2,0.3
		c-5.2-7.8-13.2-13.6-22.6-15.8c-6.7-10.4-18.3-17.3-31.5-17.3c-16.1,0-29.8,10.1-35.1,24.4c-6.4-5.1-14.5-8.1-23.3-8.1
		c-20.7,0-37.4,16.8-37.4,37.4s16.8,37.4,37.4,37.4c0.1,0,0.2,0,0.3,0c-0.1,0.8-0.1,1.6-0.1,2.5c0,20.7,16.8,37.4,37.4,37.4
		c9.7,0,18.5-3.7,25.2-9.8c6.9,8.2,17.2,13.4,28.7,13.4c17.6,0,32.3-12.1,36.3-28.4c10.6-2.6,19.3-9.7,24.2-19.1
		C5969.5,58.9,5983.9,43.1,5983.9,24z"/>
	<path id="XMLID_5_" class="st1" d="M5847.7,31c0-28-22.7-50.7-50.7-50.7c-19.6,0-36.5,11.1-45,27.4c-0.9,0.1-1.8,0.2-2.7,0.4
		c-7-10.6-17.9-18.4-30.6-21.4c-9-14-24.7-23.4-42.7-23.4c-21.8,0-40.3,13.7-47.5,33c-8.7-6.9-19.6-11-31.5-11
		c-28,0-50.7,22.7-50.7,50.7s22.7,50.7,50.7,50.7c0.2,0,0.3,0,0.5,0c-0.1,1.1-0.1,2.2-0.1,3.3c0,28,22.7,50.7,50.7,50.7
		c13.1,0,25.1-5,34.1-13.2c9.3,11.1,23.3,18.2,38.9,18.2c23.8,0,43.7-16.4,49.2-38.5c14.3-3.5,26.2-13.1,32.8-25.9
		C5828.1,78.3,5847.7,57,5847.7,31z"/>
</g>
</svg>
