<?xml version="1.0" encoding="utf-8"?>
<!-- Generator: Adobe Illustrator 19.0.0, SVG Export Plug-In . SVG Version: 6.00 Build 0)  -->
<svg version="1.1" id="Layer_1" xmlns="http://www.w3.org/2000/svg" xmlns:xlink="http://www.w3.org/1999/xlink" x="0px" y="0px"
	 viewBox="0 0 6000 500" style="enable-background:new 0 0 6000 500;" xml:space="preserve">
<style type="text/css">
	.st0{fill:#006837;}
	.st1{fill:#F2F2F2;}
	.st2{fill:#009245;}
</style>
<g id="XMLID_17_">
	<g id="XMLID_2_">
		<path id="XMLID_1_" class="st0" d="M-37.6,230.6L-37.6,230.6c-127.2,0-231.2,122.8-231.2,273c0,0,436.4,0,462.4,0s0,0,0,0
			C193.6,353.4,89.5,230.6-37.6,230.6z"/>
		<path id="XMLID_4_" class="st1" d="M131.6,346.2L131.6,346.2c-86.2,0-156.7,70.8-156.7,157.3c0,0,295.8,0,313.5,0s0,0,0,0
			C288.3,417,217.8,346.2,131.6,346.2z"/>
		<path id="XMLID_3_" class="st2" d="M-129.2,355.6L-129.2,355.6c-91.8,0-167,66.6-167,148c0,0,315.1,0,334,0s0,0,0,0
			C37.8,422.2-37.3,355.6-129.2,355.6z"/>
	</g>
</g>
<g id="XMLID_60_">
	<g id="XMLID_61_">
		<path id="XMLID_64_" class="st0" d="M5962.4,227L5962.4,227c-127.2,0-231.2,122.8-231.2,273c0,0,436.4,0,462.4,0c26,0,0,0,0,0
			C6193.6,349.8,6089.5,227,5962.4,227z"/>
		<path id="XMLID_63_" class="st1" d="M6131.6,342.7L6131.6,342.7c-86.2,0-156.7,70.8-156.7,157.3c0,0,295.8,0,313.5,0s0,0,0,0
			C6288.3,413.5,6217.8,342.7,6131.6,342.7z"/>
		<path id="XMLID_62_" class="st2" d="M5870.8,352L5870.8,352c-91.8,0-167,66.6-167,148c0,0,315.1,0,334,0c18.8,0,0,0,0,0
			C6037.8,418.6,5962.7,352,5870.8,352z"/>
	</g>
</g>
<g id="XMLID_20_">
	<g id="XMLID_22_">
		<path id="XMLID_25_" class="st0" d="M2848.5,227L2848.5,227c-127.2,0-231.2,122.8-231.2,273c0,0,436.4,0,462.4,0c26,0,0,0,0,0
			C3079.7,349.8,2975.7,227,2848.5,227z"/>
		<path id="XMLID_24_" class="st1" d="M3017.7,342.7L3017.7,342.7c-86.2,0-156.7,70.8-156.7,157.3c0,0,295.8,0,313.5,0
			c17.7,0,0,0,0,0C3174.5,413.5,3104,342.7,3017.7,342.7z"/>
		<path id="XMLID_23_" class="st2" d="M2757,352L2757,352c-91.8,0-167,66.6-167,148c0,0,315.1,0,334,0c18.8,0,0,0,0,0
			C2924,418.6,2848.8,352,2757,352z"/>
	</g>
</g>
<g id="XMLID_5_">
	<g id="XMLID_13_">
		<g id="XMLID_15_">
			<path id="XMLID_19_" class="st0" d="M1872.6,117.7L1872.6,117.7C1682,117.7,1526,290.2,1526,501c0,0,654.2,0,693.2,0s0,0,0,0
				C2219.2,290.2,2063.2,117.7,1872.6,117.7z"/>
			<path id="XMLID_18_" class="st1" d="M2126.3,280.1L2126.3,280.1c-129.2,0-235,99.4-235,220.9c0,0,443.5,0,470,0s0,0,0,0
				C2361.2,379.5,2255.5,280.1,2126.3,280.1z"/>
			<path id="XMLID_16_" class="st2" d="M1735.3,293.2L1735.3,293.2c-137.7,0-250.3,93.5-250.3,207.8c0,0,472.5,0,500.7,0
				c28.2,0,0,0,0,0C1985.7,386.7,1873,293.2,1735.3,293.2z"/>
		</g>
	</g>
	<g id="XMLID_7_">
		<g id="XMLID_9_">
			<path id="XMLID_12_" class="st0" d="M1178.5,177.2L1178.5,177.2c-160.6,0-292,145.3-292,322.8c0,0,551,0,583.9,0s0,0,0,0
				C1470.4,322.4,1339.1,177.2,1178.5,177.2z"/>
			<path id="XMLID_11_" class="st1" d="M1392.2,313.9L1392.2,313.9c-108.9,0-197.9,83.7-197.9,186.1c0,0,373.6,0,395.9,0
				c22.3,0,0,0,0,0C1590.1,397.7,1501,313.9,1392.2,313.9z"/>
			<path id="XMLID_10_" class="st2" d="M1062.9,325L1062.9,325c-116,0-210.9,78.8-210.9,175c0,0,398,0,421.7,0s0,0,0,0
				C1273.7,403.7,1178.8,325,1062.9,325z"/>
		</g>
	</g>
</g>
<g id="XMLID_27_">
	<g id="XMLID_34_">
		<g id="XMLID_36_">
			<path id="XMLID_39_" class="st0" d="M4603.6,78.7L4603.6,78.7c-210.1,0-381.9,190-381.9,422.3c0,0,720.8,0,763.9,0s0,0,0,0
				C4985.5,268.7,4813.7,78.7,4603.6,78.7z"/>
			<path id="XMLID_38_" class="st1" d="M4883.1,257.6L4883.1,257.6c-142.4,0-258.9,109.5-258.9,243.4c0,0,488.7,0,517.9,0s0,0,0,0
				C5142,367.1,5025.5,257.6,4883.1,257.6z"/>
			<path id="XMLID_37_" class="st2" d="M4452.3,272L4452.3,272c-151.7,0-275.8,103-275.8,229c0,0,520.6,0,551.7,0c31.1,0,0,0,0,0
				C4728.2,375.1,4604.1,272,4452.3,272z"/>
		</g>
	</g>
	<g id="XMLID_28_">
		<g id="XMLID_30_">
			<path id="XMLID_33_" class="st0" d="M3838.8,144.2L3838.8,144.2c-176.9,0-321.7,160.1-321.7,355.7c0,0,607.2,0,643.4,0
				c36.2,0,0,0,0,0C4160.5,304.2,4015.7,144.2,3838.8,144.2z"/>
			<path id="XMLID_32_" class="st1" d="M4074.2,294.9L4074.2,294.9c-120,0-218.1,92.3-218.1,205c0,0,411.6,0,436.2,0s0,0,0,0
				C4292.3,387.1,4194.2,294.9,4074.2,294.9z"/>
			<path id="XMLID_31_" class="st2" d="M3711.3,307L3711.3,307c-127.8,0-232.3,86.8-232.3,192.9c0,0,438.5,0,464.7,0c26.2,0,0,0,0,0
				C3943.7,393.8,3839.1,307,3711.3,307z"/>
		</g>
	</g>
</g>
</svg>
